<svg class="main-svg" xmlns="http://www.w3.org/2000/svg" xmlns:xlink="http://www.w3.org/1999/xlink" width="700" height="450" style="" viewBox="0 0 700 450"><rect x="0" y="0" width="700" height="450" style="fill: rgb(255, 255, 255); fill-opacity: 1;"/><defs id="defs-0386de"><g class="clips"><clipPath class="plotclip" id="clip0386dexyplot"><rect width="580" height="330"/></clipPath><clipPath class="axesclip" id="clip0386dex"><rect x="60" y="0" width="580" height="450"/></clipPath><clipPath class="axesclip" id="clip0386dey"><rect x="0" y="60" width="700" height="330"/></clipPath><clipPath class="axesclip" id="clip0386dexy"><rect x="60" y="60" width="580" height="330"/></clipPath></g><g class="gradients"/></defs><g class="bglayer"><rect class="bg" x="60" y="60" width="580" height="330" style="fill: rgb(255, 255, 255); fill-opacity: 1; stroke-width: 0;"/></g><g class="layer-below"><g class="imagelayer"/><g class="shapelayer"/></g><g class="cartesianlayer"><g class="subplot xy"><g class="layer-subplot"><g class="shapelayer"/><g class="imagelayer"/></g><g class="gridlayer"><g class="x"><path class="xgrid crisp" d="M0,60v330" transform="translate(184.73000000000002,0)" style="stroke: rgb(238, 238, 238); stroke-opacity: 1; stroke-width: 1px;"/><path class="xgrid crisp" d="M0,60v330" transform="translate(309.48,0)" style="stroke: rgb(238, 238, 238); stroke-opacity: 1; stroke-width: 1px;"/><path class="xgrid crisp" d="M0,60v330" transform="translate(434.22,0)" style="stroke: rgb(238, 238, 238); stroke-opacity: 1; stroke-width: 1px;"/><path class="xgrid crisp" d="M0,60v330" transform="translate(558.97,0)" style="stroke: rgb(238, 238, 238); stroke-opacity: 1; stroke-width: 1px;"/></g><g class="y"><path class="ygrid crisp" d="M60,0h580" transform="translate(0,303.19)" style="stroke: rgb(238, 238, 238); stroke-opacity: 1; stroke-width: 1px;"/><path class="ygrid crisp" d="M60,0h580" transform="translate(0,228.77)" style="stroke: rgb(238, 238, 238); stroke-opacity: 1; stroke-width: 1px;"/><path class="ygrid crisp" d="M60,0h580" transform="translate(0,154.36)" style="stroke: rgb(238, 238, 238); stroke-opacity: 1; stroke-width: 1px;"/><path class="ygrid crisp" d="M60,0h580" transform="translate(0,79.94)" style="stroke: rgb(238, 238, 238); stroke-opacity: 1; stroke-width: 1px;"/></g></g><g class="zerolinelayer"><path class="yzl zl crisp" d="M60,0h580" transform="translate(0,377.6)" style="stroke: rgb(68, 68, 68); stroke-opacity: 1; stroke-width: 1px;"/></g><path class="xlines-below"/><path class="ylines-below"/><g class="overlines-below"/><g class="xaxislayer-below"/><g class="yaxislayer-below"/><g class="overaxes-below"/><g class="plot" transform="translate(60, 60)" clip-path="url(#clip0386dexyplot)"><g class="imagelayer"/><g class="maplayer"/><g class="barlayer"/><g class="carpetlayer"/><g class="violinlayer"/><g class="boxlayer"/><g class="scatterlayer"><g class="trace scatter trace03c13a" style="stroke-miterlimit: 2; opacity: 1;"><path class="js-line" style="vector-effect: non-scaling-stroke; fill: none; stroke: rgb(31, 119, 180); stroke-opacity: 1; stroke-width: 2px; opacity: 1;" d="M0,184.23L0.05,212.32L0.6,60.67L0.67,73.78L0.69,69.04L0.97,137.16L1.5,115.03L1.51,115.03L1.67,92.07L2.26,110.46L2.27,110.47L3.16,110.68L3.17,113.58L3.34,113.58L3.36,114.11L3.37,115.98L3.54,73.81L4.15,84.13L4.17,84.13L4.96,85.72L4.99,85.69L5,85.69L5.9,86.1L5.91,86.91L6.31,133.77L6.32,185.67L6.4,287.04L6.87,184.57L7.07,196.88L7.09,198.04L8.06,239.71L8.07,239.74L8.23,240.45L8.25,241.67L8.76,242.83L8.82,233.77L8.83,232.74L8.87,235.62L8.89,228.97L8.91,212.21L9.37,235.21L9.51,84.34L9.77,155.7L9.78,157.84L9.87,140.06L10.69,191.97L10.7,192.25L11,207.43L11.01,207.65L11.1,209.12L11.14,205.6L11.18,207.56L11.19,212.36L11.79,226.47L12.01,223.76L12.03,224.1L12.04,224.36L12.08,211.92L12.09,196.99L12.36,185.55L12.7,235.83L12.71,240.26L12.91,232.23L13.55,271.38L13.56,271.45L13.81,273.82L13.85,271.39L13.86,228.06L14.06,236.57L14.15,179.47L14.61,226.2L14.62,227.31L14.98,255.42L15.06,225.38L15.07,216.8L15.12,180.71L15.82,208.61L15.83,209.63L16.09,233.41L16.23,184.89L16.62,222.69L16.63,222.98L17.33,238.49L17.45,227.5L17.46,226.41L17.49,226.16L17.65,233.13L17.66,234.49L17.81,235.65L17.83,229.59L17.84,206.07L17.93,16.5L18.59,178.05L18.6,178.84L19.85,248.69L20.06,232.35L20.07,227.24L20.18,44.8L20.67,182.49L20.68,183.37L21.59,217.65L21.66,205.68L21.67,183.56L22.17,137L22.24,226.32L22.52,158.12L22.53,158.47L22.65,154.84L22.9,173.96L22.92,177.35L23.69,205.82L23.81,205.7L23.83,205.71L24.25,211.61L24.41,207.15L24.42,204.37L24.46,205.65L24.56,184.47L25.06,196.2L25.07,197.08L26.01,247.03L26.27,245L26.28,238.92L26.36,244.53L26.73,158.82L26.75,151.26L26.77,132.91L27.47,182.96L27.48,185.16L28.52,250.91L28.53,246.58L29.24,39.41L29.36,98.23L29.38,102.75L29.74,136.55L29.81,48.88L30.28,130.1L30.29,130.35L31.77,173.48L31.78,177.04L32.08,201.57L32.36,167.32L32.53,177.25L32.55,177.57L33.19,184.87L33.22,176.27L33.23,170.1L33.28,171.95L33.32,158.86L33.33,149.29L33.41,135.28L34.04,150.74L34.07,150.73L34.08,150.74L34.39,158.32L34.4,158.66L34.94,171.36L34.95,160.79L34.97,138.16L34.99,120.78L35.71,128.14L35.73,132.7L35.75,137.5L35.83,105.86L35.84,90.18L35.85,85.82L36.51,118.97L36.53,120.46L37.27,131.34L37.3,131.27L37.31,131.33L37.56,131.4L37.57,131.61L37.59,132.62L38.68,159.89L38.7,163.77L38.81,178.44L39.49,176.41L39.51,174.04L39.66,154.36L40.27,160.35L40.28,161.2L40.78,175.18L41.07,172.47L41.08,172.49L41.69,187.24L41.7,162.65L41.79,84.59L42.45,134.74L42.46,133.97L42.49,133.72L42.63,138.59L42.64,140.2L43.12,174.93L43.49,166.85L43.5,164.66L43.52,164.02L44.23,164.95L44.25,164.98L44.35,165.26L44.36,162.8L44.41,147.78L45.03,216.73L45.05,217.07L45.26,218.78L45.69,206.37L45.76,212.17L45.77,213.99L46.23,219.53L46.37,205.45L46.38,201.31L46.58,194.39L46.88,205.15L47.12,202.3L47.13,202.31L47.19,199.48L47.38,204.84L47.39,206.58L47.52,206.5L48.26,213.03L48.28,213.02L48.51,214.56L48.53,218.5L48.65,214.02L49.16,219.25L49.29,217.3L49.3,217.98L49.75,221.86L49.99,214L50,210.25L50.04,210.64L50.06,203.48L50.07,199.99L50.08,198.63L50.65,221.4L50.66,223.96L50.95,236.71L51.12,213.44L51.42,225.38L51.43,225.46L51.93,232.95L51.94,234.67L51.97,238.23L51.99,229.37L52.01,224.42L52.03,226.11L52.23,134.75L52.24,122.34L52.27,117.98L52.74,169.93L52.75,169.94L52.85,170.56L52.87,171.44L53.74,181.94L53.75,182.04L53.83,184.56L53.84,185.83L54.8,235.1L54.83,235.08L54.84,235.07L55.27,241.84L55.55,228.42L55.6,234.06L55.61,234.83L56.06,253.38L56.37,167.87L56.46,194.97L56.47,200.03L56.52,197.61L57.27,214.68L57.28,214.72L57.39,219.88L57.41,220.36L57.58,237.19L57.91,217.73L58.11,225.77L58.12,224.65L58.75,238.86L58.84,220.63L58.85,222.53L58.87,222.53L59,204.1L59.67,229.07L59.68,229.53L60.45,250.58L60.46,244.28L60.48,225.89L60.5,179.03L61.22,228.8L61.24,229.1L61.32,224.25L62.1,236.13L62.11,236.1L62.12,236.03L62.75,237.82L63.02,237.63L63.03,236.68L63.08,234.31L63.1,219.93L63.47,155.24L63.78,224.1L63.84,223.95L63.86,224.21L64.74,152.65L64.89,157.4L64.9,157.85L65.83,192.49L65.89,191.69L65.9,191.69L66.46,184.5L66.69,190.55L66.7,193.21L67.47,211.91L67.49,211.87L68.15,205.24L68.29,205.85L68.3,207.68L68.58,205.72L69.08,212.71L69.1,212.87L69.15,202.92L70.04,225.44L70.11,221.88L70.12,221.74L70.67,226.43L70.68,225.84L70.69,218.89L70.74,215.16L70.99,231.33L71.33,230.03L71.34,230.22L71.44,230.8L71.49,230.42L71.5,234.83L71.64,233.5L72.35,244.32L72.51,244.19L72.53,244.19L73.01,239.64L73.03,239.69L73.04,249.25L73.08,251.83L73.16,230.11L73.62,236.82L73.64,237.09L73.67,237.91L73.79,220.74L74.09,224.62L74.1,224.62L74.4,231.57L74.87,229.66L74.88,229.77L74.95,230.07L74.96,233.53L75.73,238.89L75.74,239.01L75.77,239.21L75.82,237.83L76.04,238.32L76.06,236.03L76.17,176.58L76.81,218.88L76.82,218.92L77.4,220.48L77.42,222.83L77.7,249.62L77.77,218.74L78.2,235.37L78.21,235.35L78.68,236.49L78.69,236.67L79.05,238.16L79.18,226.84L79.39,229.08L79.4,244.22L79.5,247.63L79.57,225.73L79.59,205.32L79.8,152.87L80.36,166.37L80.37,166.12L80.6,169.56L80.61,170.92L81.51,197.25L81.52,197.69L81.7,213.97L81.71,215.7L82.67,235.65L82.68,232.24L82.69,229.68L82.89,231.86L82.98,224.08L83.43,230.07L83.44,230.67L83.57,235.73L83.7,219.9L84.15,228.55L84.17,228.65L84.46,230.35L84.64,226.14L84.65,226.14L84.66,226.14L85.11,229.07L85.3,226.34L85.31,226.32L85.7,226.79L85.74,226.21L85.75,227.15L85.77,230.48L85.94,189.44L86.47,221.14L86.49,221.15L87.22,228.64L87.5,228.6L87.51,228.61L88.03,228.63L88.04,230.65L88.33,236.98L88.36,230.46L88.86,234.51L88.87,232.41L88.91,210.73L89.12,240.92L89.13,241.27L89.17,241.56L89.37,229.94L89.55,232.53L89.57,229.71L89.74,233.4L89.78,213.19L90.29,227.48L90.3,226.75L90.38,192.19L90.91,210.04L90.93,210.26L91.39,210.21L91.61,211.38L91.7,211.37L91.71,211.35L91.86,211.31L91.87,211.54L91.89,212.12L92.8,231.81L92.81,232.01L92.86,232.58L92.88,222.68L92.9,217.14L93.07,188.36L93.66,201.8L93.67,201.8L93.78,201.93L93.83,201.6L93.85,201.8L93.86,203.82L94.96,244.3L95.02,243.2L95.03,236.37L95.07,206.27L95.4,238.4L95.78,217.42L95.79,217.3L96.46,207.52L96.8,211.12L96.81,211.46L96.9,208.7L97.41,217.69L97.68,217.14L97.69,215.66L98.24,208.64L98.37,229.45L98.39,230.02L99.27,251.39L99.3,251.37L99.31,251.35L99.72,254.29L99.73,262.76L99.82,265.99L99.83,267.15L99.87,269.88L99.88,289.86L100.99,291.77L101.17,291.69L101.18,291.62L102.32,291.69L102.33,291.57L103.28,291.69L103.29,291.66L108.43,291.77L108.44,291.69L110.41,291.72L110.42,291.7L111.32,292.85L111.33,294.34L112.12,309.39L112.15,309.34L112.16,309.32L113.74,309.95L113.75,310.23L114.45,311.13L114.55,311.11L114.57,311.11L116.11,311.68L116.12,311.8L117.47,312.98L117.48,312.97L117.5,312.97L122.32,313.4L122.34,313.4L124.57,313.46L124.58,312.79L124.59,311.85L125.17,313.39L125.32,313.39L125.33,313.38L132.19,313.24L132.2,311.95L132.44,313.24L132.47,305.28L132.94,313.14L132.95,313.14L135.7,313.47L135.71,313.46L141.01,313.44L141.02,313.41L152.25,313.42L152.26,313.41L163.43,313.42L163.44,313.41L174.54,313.43L174.56,313.41L580,313.43"/><g class="points"/></g></g></g><g class="overplot"/><path class="xlines-above crisp" style="fill: none;"/><path class="ylines-above crisp" style="fill: none;"/><g class="overlines-above"/><g class="xaxislayer-above"><g class="xtick"><text text-anchor="middle" x="0" y="403" style="font-family: TOBESTRIPPEDOpen SansTOBESTRIPPED, verdana, arial, sans-serif; font-size: 12px; fill: rgb(68, 68, 68); fill-opacity: 1; white-space: pre;" transform="translate(59.99,0)">0</text></g><g class="xtick"><text text-anchor="middle" x="0" y="403" style="font-family: TOBESTRIPPEDOpen SansTOBESTRIPPED, verdana, arial, sans-serif; font-size: 12px; fill: rgb(68, 68, 68); fill-opacity: 1; white-space: pre;" transform="translate(184.73000000000002,0)">100k</text></g><g class="xtick"><text text-anchor="middle" x="0" y="403" style="font-family: TOBESTRIPPEDOpen SansTOBESTRIPPED, verdana, arial, sans-serif; font-size: 12px; fill: rgb(68, 68, 68); fill-opacity: 1; white-space: pre;" transform="translate(309.48,0)">200k</text></g><g class="xtick"><text text-anchor="middle" x="0" y="403" style="font-family: TOBESTRIPPEDOpen SansTOBESTRIPPED, verdana, arial, sans-serif; font-size: 12px; fill: rgb(68, 68, 68); fill-opacity: 1; white-space: pre;" transform="translate(434.22,0)">300k</text></g><g class="xtick"><text text-anchor="middle" x="0" y="403" style="font-family: TOBESTRIPPEDOpen SansTOBESTRIPPED, verdana, arial, sans-serif; font-size: 12px; fill: rgb(68, 68, 68); fill-opacity: 1; white-space: pre;" transform="translate(558.97,0)">400k</text></g></g><g class="yaxislayer-above"><g class="ytick"><text text-anchor="end" x="59" y="4.199999999999999" style="font-family: TOBESTRIPPEDOpen SansTOBESTRIPPED, verdana, arial, sans-serif; font-size: 12px; fill: rgb(68, 68, 68); fill-opacity: 1; white-space: pre;" transform="translate(0,377.6)">0</text></g><g class="ytick"><text text-anchor="end" x="59" y="4.199999999999999" style="font-family: TOBESTRIPPEDOpen SansTOBESTRIPPED, verdana, arial, sans-serif; font-size: 12px; fill: rgb(68, 68, 68); fill-opacity: 1; white-space: pre;" transform="translate(0,303.19)">50k</text></g><g class="ytick"><text text-anchor="end" x="59" y="4.199999999999999" style="font-family: TOBESTRIPPEDOpen SansTOBESTRIPPED, verdana, arial, sans-serif; font-size: 12px; fill: rgb(68, 68, 68); fill-opacity: 1; white-space: pre;" transform="translate(0,228.77)">100k</text></g><g class="ytick"><text text-anchor="end" x="59" y="4.199999999999999" style="font-family: TOBESTRIPPEDOpen SansTOBESTRIPPED, verdana, arial, sans-serif; font-size: 12px; fill: rgb(68, 68, 68); fill-opacity: 1; white-space: pre;" transform="translate(0,154.36)">150k</text></g><g class="ytick"><text text-anchor="end" x="59" y="4.199999999999999" style="font-family: TOBESTRIPPEDOpen SansTOBESTRIPPED, verdana, arial, sans-serif; font-size: 12px; fill: rgb(68, 68, 68); fill-opacity: 1; white-space: pre;" transform="translate(0,79.94)">200k</text></g></g><g class="overaxes-above"/></g></g><g class="polarlayer"/><g class="ternarylayer"/><g class="geolayer"/><g class="pielayer"/><g class="glimages"/><defs id="topdefs-0386de"><g class="clips"/></defs><g class="layer-above"><g class="imagelayer"/><g class="shapelayer"/></g><g class="infolayer"><g class="g-gtitle"><text class="gtitle" style="font-family: TOBESTRIPPEDOpen SansTOBESTRIPPED, verdana, arial, sans-serif; font-size: 17px; fill: rgb(68, 68, 68); opacity: 1; font-weight: normal; white-space: pre;" x="350" y="30" text-anchor="middle">Loss (mean per 10 steps)</text></g><g class="g-xtitle"><text class="xtitle" style="font-family: TOBESTRIPPEDOpen SansTOBESTRIPPED, verdana, arial, sans-serif; font-size: 14px; fill: rgb(68, 68, 68); opacity: 1; font-weight: normal; white-space: pre;" x="350" y="442" text-anchor="middle">Step</text></g><g class="g-ytitle"><text class="ytitle" transform="rotate(-90,22,225)" style="font-family: TOBESTRIPPEDOpen SansTOBESTRIPPED, verdana, arial, sans-serif; font-size: 14px; fill: rgb(68, 68, 68); opacity: 1; font-weight: normal; white-space: pre;" x="22" y="225" text-anchor="middle">Loss</text></g></g></svg>