<svg class="main-svg" xmlns="http://www.w3.org/2000/svg" xmlns:xlink="http://www.w3.org/1999/xlink" width="700" height="450" style="" viewBox="0 0 700 450"><rect x="0" y="0" width="700" height="450" style="fill: rgb(255, 255, 255); fill-opacity: 1;"/><defs id="defs-6e7900"><g class="clips"><clipPath class="plotclip" id="clip6e7900xyplot"><rect width="580" height="330"/></clipPath><clipPath class="axesclip" id="clip6e7900x"><rect x="60" y="0" width="580" height="450"/></clipPath><clipPath class="axesclip" id="clip6e7900y"><rect x="0" y="60" width="700" height="330"/></clipPath><clipPath class="axesclip" id="clip6e7900xy"><rect x="60" y="60" width="580" height="330"/></clipPath></g><g class="gradients"/></defs><g class="bglayer"><rect class="bg" x="60" y="60" width="580" height="330" style="fill: rgb(255, 255, 255); fill-opacity: 1; stroke-width: 0;"/></g><g class="layer-below"><g class="imagelayer"/><g class="shapelayer"/></g><g class="cartesianlayer"><g class="subplot xy"><g class="layer-subplot"><g class="shapelayer"/><g class="imagelayer"/></g><g class="gridlayer"><g class="x"><path class="xgrid crisp" d="M0,60v330" transform="translate(176.70999999999998,0)" style="stroke: rgb(238, 238, 238); stroke-opacity: 1; stroke-width: 1px;"/><path class="xgrid crisp" d="M0,60v330" transform="translate(294.59000000000003,0)" style="stroke: rgb(238, 238, 238); stroke-opacity: 1; stroke-width: 1px;"/><path class="xgrid crisp" d="M0,60v330" transform="translate(412.48,0)" style="stroke: rgb(238, 238, 238); stroke-opacity: 1; stroke-width: 1px;"/><path class="xgrid crisp" d="M0,60v330" transform="translate(530.37,0)" style="stroke: rgb(238, 238, 238); stroke-opacity: 1; stroke-width: 1px;"/></g><g class="y"><path class="ygrid crisp" d="M60,0h580" transform="translate(0,312.94)" style="stroke: rgb(238, 238, 238); stroke-opacity: 1; stroke-width: 1px;"/><path class="ygrid crisp" d="M60,0h580" transform="translate(0,248.98)" style="stroke: rgb(238, 238, 238); stroke-opacity: 1; stroke-width: 1px;"/><path class="ygrid crisp" d="M60,0h580" transform="translate(0,185.03)" style="stroke: rgb(238, 238, 238); stroke-opacity: 1; stroke-width: 1px;"/><path class="ygrid crisp" d="M60,0h580" transform="translate(0,121.07)" style="stroke: rgb(238, 238, 238); stroke-opacity: 1; stroke-width: 1px;"/></g></g><g class="zerolinelayer"><path class="yzl zl crisp" d="M60,0h580" transform="translate(0,376.89)" style="stroke: rgb(68, 68, 68); stroke-opacity: 1; stroke-width: 1px;"/></g><path class="xlines-below"/><path class="ylines-below"/><g class="overlines-below"/><g class="xaxislayer-below"/><g class="yaxislayer-below"/><g class="overaxes-below"/><g class="plot" transform="translate(60, 60)" clip-path="url(#clip6e7900xyplot)"><g class="imagelayer"/><g class="maplayer"/><g class="barlayer"/><g class="carpetlayer"/><g class="violinlayer"/><g class="boxlayer"/><g class="scatterlayer"><g class="trace scatter trace034b9c" style="stroke-miterlimit: 2; opacity: 1;"><path class="js-line" style="vector-effect: non-scaling-stroke; fill: none; stroke: rgb(31, 119, 180); stroke-opacity: 1; stroke-width: 2px; opacity: 1;" d="M0,100.79L1.18,103.52L2.36,114.87L3.54,120.48L4.72,163.48L5.89,148.75L7.07,227.17L8.25,221.79L9.43,209.38L10.61,213.89L11.79,151.55L12.97,264.37L14.15,193.81L15.33,204.26L16.5,270.37L17.68,217.71L18.86,200.39L21.22,275.71L22.4,222.56L23.58,203.84L24.76,198.52L27.11,239.39L28.29,199.15L30.65,228.63L31.83,255.24L33.01,204.64L34.19,212.73L35.37,228.18L36.54,227.98L37.72,215.61L38.9,238.15L40.08,214.91L41.26,231.62L43.62,182.95L44.8,191.38L45.98,229.29L47.15,219.99L48.33,218.69L49.51,222.35L50.69,213.24L51.87,213.63L53.05,230.91L54.23,211.34L55.41,226.25L56.59,214.79L57.76,210.02L58.94,220.09L60.12,248.74L61.3,221.57L62.48,211.13L63.66,238.1L64.84,205.78L66.02,223.36L67.2,219.54L68.37,209.8L69.55,213.4L70.73,229.15L71.91,214.73L73.09,216.84L74.27,212.82L75.45,231.49L76.63,218.1L77.8,220.01L78.98,211.18L80.16,232.97L81.34,221.57L82.52,223.77L83.7,236.26L84.88,239.36L86.06,234.74L87.24,236.77L89.59,243.31L90.77,233.07L91.95,236L93.13,235.33L94.31,248.97L95.49,244.32L96.67,238.14L97.85,246.56L99.02,254.38L100.2,242.97L101.38,240.55L102.56,239.96L103.74,255.25L104.92,248.21L106.1,245.65L107.28,239.47L108.46,258.72L109.63,249.35L110.81,247.33L111.99,247.42L113.17,258.5L114.35,252.04L115.53,248.64L116.71,248.37L117.89,258.73L119.07,254.63L120.24,251.97L121.42,255.33L122.6,261.05L123.78,255.69L126.14,255.71L127.32,268.5L128.5,260.23L129.67,260.08L130.85,257.55L132.03,267.88L133.21,273.8L134.39,261.12L135.57,261.74L136.75,269.43L137.93,264.74L139.11,263.45L140.28,261.79L141.46,271.96L143.82,266.89L145,264.65L146.18,272.99L147.36,267.92L148.54,268.18L149.72,269.88L150.89,272.46L152.07,269.27L153.25,269.74L154.43,275.02L155.61,278.46L156.79,273.68L157.97,274.2L159.15,273.04L160.33,279.79L161.5,276.22L163.86,273.41L165.04,280.63L166.22,275.69L167.4,276.1L168.58,274.76L169.76,282.61L170.93,279.22L172.11,279.5L173.29,277.59L174.47,282.53L175.65,278.82L176.83,279.23L178.01,280.39L179.19,285.1L180.37,281.64L181.54,281.01L182.72,280.52L183.9,286.39L185.08,283.59L186.26,282.8L187.44,283.09L188.62,287.47L190.98,283.52L192.15,284.79L193.33,288.06L194.51,286.28L195.69,287.86L196.87,285.06L198.05,290.19L199.23,287.44L200.41,288.23L201.59,287.52L202.76,291.16L203.94,289.61L205.12,288.6L206.3,289.74L207.48,293.68L208.66,290.97L209.84,290.91L211.02,289.99L212.2,293.12L213.37,291.72L215.73,291.64L216.91,294.82L219.27,292.24L220.45,293.54L221.63,295.31L222.8,294.22L225.16,294.19L226.34,296.68L227.52,294.97L228.7,295L229.88,294.48L231.06,297.21L233.41,295.11L234.59,295.91L235.77,298.86L236.95,297.35L238.13,298.22L239.31,297.17L240.49,299.67L241.67,298.42L242.85,297.42L244.02,298.56L245.2,298.94L246.38,301.51L247.56,301.82L248.74,297.42L249.92,300.92L251.1,299.39L252.28,298.56L253.46,299.34L254.63,300.8L255.81,304.1L256.99,301.36L258.17,301.34L259.35,301.53L260.53,304.52L261.71,303.04L262.89,302.94L264.07,303.08L265.24,301.04L266.42,305.36L267.6,301.53L269.96,304.58L271.14,304.88L272.32,302.36L273.5,303.92L274.67,304.12L275.85,305.9L278.21,304.77L279.39,306.16L280.57,306.75L281.75,305.26L284.11,306.28L285.28,304.58L286.46,306.41L287.64,305.35L290,307.52L291.18,305.91L293.54,306.75L294.72,309.44L295.89,307.23L297.07,306.97L298.25,307L299.43,309.2L300.61,306.64L301.79,307.19L302.97,309.18L304.15,308.12L306.5,308.09L307.68,309.55L311.22,308.29L312.4,309.72L314.76,308.59L315.93,308.3L317.11,308.58L318.29,311.6L319.47,308.78L320.65,309L323.01,310.8L324.19,309.65L325.37,309.1L326.54,309.62L327.72,310.07L328.9,309.42L333.62,310.23L334.8,309.55L335.98,310.9L337.15,310.3L338.33,310.89L339.51,309.92L340.69,310.98L341.87,310.58L345.41,310.68L346.59,310.73L347.76,311.72L348.94,310.5L350.12,311.46L351.3,310.85L352.48,310.32L353.66,310.87L356.02,311.22L357.2,311.16L358.37,311.01L359.55,311.65L365.45,311.12L366.63,312.07L368.98,311.34L370.16,312.47L372.52,311.39L373.7,312L377.24,311.71L378.41,312.53L380.77,311.96L381.95,311.68L385.49,312.67L386.67,311.95L390.2,312.4L391.38,312.01L394.92,312.9L396.1,312.29L399.63,312.72L400.81,312.43L404.35,312.78L405.53,312.44L409.07,312.83L410.24,312.59L418.5,313.27L419.67,312.89L427.93,313.12L429.11,312.93L437.36,313.18L438.54,312.92L460.93,313.39L462.11,313.12L484.51,313.41L485.69,313.24L557.6,313.34L558.78,313.37L580,313.32"/><g class="points"/></g><g class="trace scatter trace12355c" style="stroke-miterlimit: 2; opacity: 1;"><path class="js-line" style="vector-effect: non-scaling-stroke; fill: none; stroke: rgb(255, 127, 14); stroke-opacity: 1; stroke-width: 2px; opacity: 1;" d="M0,16.5L1.18,93.67L2.36,114.53L3.54,126.11L4.72,174.43L5.89,152.96L7.07,257.94L8.25,215.56L9.43,237.17L10.61,71.47L11.79,227.5L12.97,270.88L14.15,175.26L15.33,213.15L16.5,279.47L17.68,196.06L18.86,238.78L20.04,240.17L21.22,207.42L22.4,237.29L23.58,224.54L24.76,188.57L25.93,240.85L27.11,196L28.29,191.79L29.47,238.4L30.65,239.13L31.83,210.54L33.01,202.05L34.19,231.19L35.37,217.02L36.54,219.01L37.72,218.51L38.9,250.27L40.08,174.18L41.26,254.16L42.44,189.93L43.62,186.07L44.8,207.71L45.98,237.3L47.15,209.48L48.33,238.41L49.51,226.78L50.69,219.3L51.87,206.33L53.05,241.45L54.23,182.36L55.41,222.78L56.59,212.59L57.76,207.02L58.94,253.49L60.12,197.04L61.3,219.69L62.48,237.4L63.66,215.58L64.84,208.14L66.02,217.26L67.2,219.69L68.37,211.87L69.55,211.98L70.73,216.19L71.91,217.58L73.09,215.78L74.27,218.11L75.45,226.49L76.63,214.87L77.8,215.77L80.16,229.06L81.34,226.37L82.52,219.6L83.7,245.22L84.88,234.07L86.06,237.37L87.24,236.49L88.41,221.75L89.59,242L90.77,232.84L91.95,237.26L93.13,235.58L94.31,245.55L95.49,233.8L97.85,256.53L99.02,248.14L100.2,243.76L101.38,242.42L103.74,249.9L104.92,246.07L106.1,250.69L107.28,244.02L108.46,254.69L109.63,250.87L111.99,247.68L113.17,255.88L115.53,251.47L116.71,247.58L117.89,255.92L119.07,258.01L121.42,249.53L122.6,262.82L123.78,257.57L124.96,258.51L126.14,258.54L127.32,264.76L128.5,259.85L129.67,259.52L130.85,259.67L132.03,267.25L133.21,270.43L134.39,262.25L135.57,264.09L136.75,267.53L139.11,263.89L140.28,264.59L141.46,269.12L142.64,269.76L143.82,268.51L145,266.15L146.18,273.93L147.36,270.08L148.54,269.15L149.72,266.99L150.89,271.75L152.07,268.09L153.25,271.08L154.43,269.22L155.61,278.22L156.79,273.89L157.97,277.09L159.15,274.34L160.33,277.67L161.5,275.48L162.68,276.27L163.86,273.96L165.04,276.99L166.22,275.47L167.4,277.77L168.58,277.16L169.76,280.66L170.93,278.51L172.11,283.36L173.29,279.73L174.47,281.32L175.65,280.13L176.83,280.61L178.01,282.08L179.19,283.93L180.37,283.63L181.54,281.49L182.72,281.6L183.9,285.43L185.08,284.12L186.26,282.58L187.44,284.32L189.8,286.36L190.98,284.38L192.15,286.77L193.33,286.79L195.69,289.97L196.87,286.41L199.23,287.62L200.41,288.76L201.59,286.94L202.76,291.07L205.12,289.67L206.3,291.32L208.66,291L209.84,291.84L211.02,289.72L212.2,293.45L216.91,292.75L218.09,294.07L219.27,292.17L220.45,293.2L221.63,295.58L222.8,295.39L223.98,292.46L225.16,295.62L226.34,294.87L227.52,296.17L228.7,296.61L229.88,294.43L231.06,297.67L232.24,296.84L233.41,296.63L234.59,297.26L235.77,298.85L236.95,297.77L238.13,299.57L239.31,297.08L241.67,300.26L242.85,298.25L244.02,301.67L245.2,298.99L246.38,304.41L247.56,302.54L249.92,299.51L251.1,299.55L252.28,300.14L253.46,301.71L255.81,303.6L256.99,302.31L258.17,305.08L259.35,300.99L261.71,306.05L262.89,304.37L264.07,303.39L265.24,301.09L266.42,308.58L267.6,302.89L269.96,304.5L271.14,305.12L273.5,303.45L274.67,305.6L275.85,307.43L277.03,307.27L278.21,304.16L279.39,307.1L280.57,304.54L281.75,305.36L282.93,306.53L284.11,305.54L285.28,308.06L286.46,306.34L287.64,305.18L288.82,307.67L290,307.83L291.18,307.1L292.36,306.77L293.54,307.64L294.72,310.63L295.89,308.92L297.07,307.06L298.25,308.44L301.79,307.68L302.97,311.08L304.15,308.37L305.33,308.47L307.68,308.07L308.86,310L310.04,310.35L311.22,308.03L312.4,308.01L313.58,309.09L314.76,310.35L315.93,309.23L317.11,310.32L318.29,307.68L319.47,310.29L320.65,309.55L321.83,308.73L323.01,312.07L325.37,308.44L326.54,311.29L328.9,309.96L330.08,310.68L332.44,310.23L333.62,311.1L334.8,309.9L335.98,311.65L339.51,310.53L340.69,311.01L341.87,310.26L343.05,311.03L344.23,310.5L345.41,311.18L346.59,312.24L347.76,311.42L348.94,310.84L350.12,312.57L353.66,310.99L354.84,311.93L356.02,310.8L357.2,312.37L358.37,311.64L359.55,312.58L361.91,311.92L363.09,311.6L364.27,311.18L365.45,312.39L368.98,311.56L370.16,312.71L372.52,312.36L373.7,312.54L378.41,312.87L379.59,311.68L380.77,312.62L381.95,312.23L384.31,312.93L385.49,312.52L387.85,311.91L389.02,312.79L391.38,312.39L392.56,312.9L417.32,313.18L418.5,313.5L420.85,313.26L422.03,313.24L437.36,313.26L438.54,312.91L442.07,313.25L443.25,313.18L456.22,313.4L457.4,313.32L468.01,313.4L469.19,313.36L580,313.31"/><g class="points"/></g></g></g><g class="overplot"/><path class="xlines-above crisp" style="fill: none;"/><path class="ylines-above crisp" style="fill: none;"/><g class="overlines-above"/><g class="xaxislayer-above"><g class="xtick"><text text-anchor="middle" x="0" y="403" style="font-family: TOBESTRIPPEDOpen SansTOBESTRIPPED, verdana, arial, sans-serif; font-size: 12px; fill: rgb(68, 68, 68); fill-opacity: 1; white-space: pre;" transform="translate(176.70999999999998,0)">100</text></g><g class="xtick"><text text-anchor="middle" x="0" y="403" style="font-family: TOBESTRIPPEDOpen SansTOBESTRIPPED, verdana, arial, sans-serif; font-size: 12px; fill: rgb(68, 68, 68); fill-opacity: 1; white-space: pre;" transform="translate(294.59000000000003,0)">200</text></g><g class="xtick"><text text-anchor="middle" x="0" y="403" style="font-family: TOBESTRIPPEDOpen SansTOBESTRIPPED, verdana, arial, sans-serif; font-size: 12px; fill: rgb(68, 68, 68); fill-opacity: 1; white-space: pre;" transform="translate(412.48,0)">300</text></g><g class="xtick"><text text-anchor="middle" x="0" y="403" style="font-family: TOBESTRIPPEDOpen SansTOBESTRIPPED, verdana, arial, sans-serif; font-size: 12px; fill: rgb(68, 68, 68); fill-opacity: 1; white-space: pre;" transform="translate(530.37,0)">400</text></g></g><g class="yaxislayer-above"><g class="ytick"><text text-anchor="end" x="59" y="4.199999999999999" style="font-family: TOBESTRIPPEDOpen SansTOBESTRIPPED, verdana, arial, sans-serif; font-size: 12px; fill: rgb(68, 68, 68); fill-opacity: 1; white-space: pre;" transform="translate(0,376.89)">0</text></g><g class="ytick"><text text-anchor="end" x="59" y="4.199999999999999" style="font-family: TOBESTRIPPEDOpen SansTOBESTRIPPED, verdana, arial, sans-serif; font-size: 12px; fill: rgb(68, 68, 68); fill-opacity: 1; white-space: pre;" transform="translate(0,312.94)">50k</text></g><g class="ytick"><text text-anchor="end" x="59" y="4.199999999999999" style="font-family: TOBESTRIPPEDOpen SansTOBESTRIPPED, verdana, arial, sans-serif; font-size: 12px; fill: rgb(68, 68, 68); fill-opacity: 1; white-space: pre;" transform="translate(0,248.98)">100k</text></g><g class="ytick"><text text-anchor="end" x="59" y="4.199999999999999" style="font-family: TOBESTRIPPEDOpen SansTOBESTRIPPED, verdana, arial, sans-serif; font-size: 12px; fill: rgb(68, 68, 68); fill-opacity: 1; white-space: pre;" transform="translate(0,185.03)">150k</text></g><g class="ytick"><text text-anchor="end" x="59" y="4.199999999999999" style="font-family: TOBESTRIPPEDOpen SansTOBESTRIPPED, verdana, arial, sans-serif; font-size: 12px; fill: rgb(68, 68, 68); fill-opacity: 1; white-space: pre;" transform="translate(0,121.07)">200k</text></g></g><g class="overaxes-above"/></g></g><g class="polarlayer"/><g class="ternarylayer"/><g class="geolayer"/><g class="pielayer"/><g class="glimages"/><defs id="topdefs-6e7900"><g class="clips"/></defs><g class="layer-above"><g class="imagelayer"/><g class="shapelayer"/></g><g class="infolayer"><g class="g-gtitle"><text class="gtitle" style="font-family: TOBESTRIPPEDOpen SansTOBESTRIPPED, verdana, arial, sans-serif; font-size: 17px; fill: rgb(68, 68, 68); opacity: 1; font-weight: normal; white-space: pre;" x="350" y="30" text-anchor="middle">Train and Eval Loss</text></g><g class="g-xtitle"><text class="xtitle" style="font-family: TOBESTRIPPEDOpen SansTOBESTRIPPED, verdana, arial, sans-serif; font-size: 14px; fill: rgb(68, 68, 68); opacity: 1; font-weight: normal; white-space: pre;" x="350" y="442" text-anchor="middle">Epoch</text></g><g class="g-ytitle"><text class="ytitle" transform="rotate(-90,22,225)" style="font-family: TOBESTRIPPEDOpen SansTOBESTRIPPED, verdana, arial, sans-serif; font-size: 14px; fill: rgb(68, 68, 68); opacity: 1; font-weight: normal; white-space: pre;" x="22" y="225" text-anchor="middle">Loss</text></g></g></svg>