<svg class="main-svg" xmlns="http://www.w3.org/2000/svg" xmlns:xlink="http://www.w3.org/1999/xlink" width="700" height="450" style="" viewBox="0 0 700 450"><rect x="0" y="0" width="700" height="450" style="fill: rgb(255, 255, 255); fill-opacity: 1;"/><defs id="defs-29fc36"><g class="clips"><clipPath class="plotclip" id="clip29fc36xyplot"><rect width="580" height="330"/></clipPath><clipPath class="axesclip" id="clip29fc36x"><rect x="60" y="0" width="580" height="450"/></clipPath><clipPath class="axesclip" id="clip29fc36y"><rect x="0" y="60" width="700" height="330"/></clipPath><clipPath class="axesclip" id="clip29fc36xy"><rect x="60" y="60" width="580" height="330"/></clipPath></g><g class="gradients"/></defs><g class="bglayer"><rect class="bg" x="60" y="60" width="580" height="330" style="fill: rgb(255, 255, 255); fill-opacity: 1; stroke-width: 0;"/></g><g class="layer-below"><g class="imagelayer"/><g class="shapelayer"/></g><g class="cartesianlayer"><g class="subplot xy"><g class="layer-subplot"><g class="shapelayer"/><g class="imagelayer"/></g><g class="gridlayer"><g class="x"><path class="xgrid crisp" d="M0,60v330" transform="translate(175.07,0)" style="stroke: rgb(238, 238, 238); stroke-opacity: 1; stroke-width: 1px;"/><path class="xgrid crisp" d="M0,60v330" transform="translate(291.3,0)" style="stroke: rgb(238, 238, 238); stroke-opacity: 1; stroke-width: 1px;"/><path class="xgrid crisp" d="M0,60v330" transform="translate(407.54,0)" style="stroke: rgb(238, 238, 238); stroke-opacity: 1; stroke-width: 1px;"/><path class="xgrid crisp" d="M0,60v330" transform="translate(523.77,0)" style="stroke: rgb(238, 238, 238); stroke-opacity: 1; stroke-width: 1px;"/></g><g class="y"><path class="ygrid crisp" d="M60,0h580" transform="translate(0,292.84000000000003)" style="stroke: rgb(238, 238, 238); stroke-opacity: 1; stroke-width: 1px;"/><path class="ygrid crisp" d="M60,0h580" transform="translate(0,208.22)" style="stroke: rgb(238, 238, 238); stroke-opacity: 1; stroke-width: 1px;"/><path class="ygrid crisp" d="M60,0h580" transform="translate(0,123.6)" style="stroke: rgb(238, 238, 238); stroke-opacity: 1; stroke-width: 1px;"/></g></g><g class="zerolinelayer"><path class="yzl zl crisp" d="M60,0h580" transform="translate(0,377.45)" style="stroke: rgb(68, 68, 68); stroke-opacity: 1; stroke-width: 1px;"/></g><path class="xlines-below"/><path class="ylines-below"/><g class="overlines-below"/><g class="xaxislayer-below"/><g class="yaxislayer-below"/><g class="overaxes-below"/><g class="plot" transform="translate(60, 60)" clip-path="url(#clip29fc36xyplot)"><g class="imagelayer"/><g class="maplayer"/><g class="barlayer"/><g class="carpetlayer"/><g class="violinlayer"/><g class="boxlayer"/><g class="scatterlayer"><g class="trace scatter tracea8565b" style="stroke-miterlimit: 2; opacity: 1;"><path class="js-line" style="vector-effect: non-scaling-stroke; fill: none; stroke: rgb(31, 119, 180); stroke-opacity: 1; stroke-width: 2px; opacity: 1;" d="M0,35.98L1.16,36.56L2.32,46.19L3.49,282L4.65,131.57L5.81,68.91L6.97,50.15L8.14,70.44L9.3,121.63L10.46,79.36L11.62,182.8L12.79,206.4L13.95,150.42L15.11,209.75L16.27,214.29L17.43,263.75L18.6,169.95L19.76,155.2L20.92,266.63L22.08,264.59L23.25,219.97L24.41,189.47L25.57,229.16L26.73,119.43L27.9,180.04L29.06,212.5L30.22,153.65L31.38,238.59L32.55,202.8L33.71,266.66L34.87,226.8L36.03,217.03L37.19,173.23L38.36,156.47L39.52,189.67L40.68,299.2L41.84,299.78L43.01,299.7L44.17,243.88L45.33,123.68L46.49,156.6L47.66,142.04L48.82,143.18L49.98,290.92L51.14,291.92L53.47,292.53L54.63,245.28L55.79,161.98L56.95,292.93L59.28,293.08L60.44,191.91L62.77,159.1L63.93,154.59L65.09,188.05L66.25,190.07L67.41,159.93L68.58,170.4L69.74,194.36L70.9,189.21L72.06,173.98L73.23,178.35L74.39,207.13L75.55,189.99L76.71,191.77L77.88,181.65L79.04,204.75L80.2,197.47L81.36,194.47L82.53,194.02L84.85,238.06L86.01,222.72L87.17,243.35L88.34,224.8L89.5,205.8L90.66,202.96L91.82,207.69L92.99,224.39L95.31,206.5L96.47,208.47L97.64,228.98L98.8,216.91L99.96,214.62L101.12,217.71L102.28,237.88L103.45,242.67L104.61,226.19L105.77,257.67L108.1,224.3L109.26,245.23L110.42,222.16L111.58,238.72L112.75,239.11L113.91,260.98L115.07,224.03L116.23,245.55L118.56,230.54L119.72,234.14L120.88,248.96L122.04,237.87L123.21,236.51L124.37,240.99L125.53,257.15L126.69,248.46L130.18,257.84L131.34,269.09L133.67,245.21L134.83,259.65L135.99,273.79L137.15,250.83L138.32,262.74L139.48,262.27L140.64,250.15L141.8,247.68L142.97,248.4L144.13,265.26L145.29,269.66L146.45,257.19L147.62,259.01L148.78,267.84L149.94,258.71L151.1,259.2L152.26,260.7L153.43,268.51L155.75,260.37L156.91,262.64L158.08,271.82L159.24,264.4L160.4,273.35L161.56,273.27L162.73,272.81L163.89,268.02L167.37,278.66L168.54,274.9L169.7,280.45L170.86,278L173.19,279.39L174.35,296.89L176.67,280.6L177.84,269.47L180.16,289.55L181.32,282.69L182.48,295.49L183.65,285.05L184.81,280.2L185.97,283.86L187.13,292.44L188.3,294.19L189.46,286.62L190.62,286.25L191.78,285.29L192.95,280.82L194.11,290.69L195.27,286.58L196.43,281.68L197.6,282.48L198.76,289.32L199.92,288.14L201.08,288.94L202.24,297.07L203.41,296.05L204.57,288.05L205.73,294.81L206.89,286.17L208.06,292.02L209.22,288.99L211.54,290.34L212.71,299.14L213.87,290.32L215.03,292.87L216.19,287.7L217.35,289.19L220.84,299.4L222,286.21L224.33,297.4L225.49,294.37L226.65,296.07L227.82,294.4L228.98,292.83L230.14,296.27L231.3,291.23L232.46,295.77L233.63,297.58L234.79,291.66L235.95,297.8L237.11,296.13L239.44,293.58L240.6,297.91L241.76,296.49L242.93,299.63L244.09,298.5L245.25,295.28L246.41,298.19L247.58,298.8L248.74,301.22L249.9,297.24L251.06,298.44L252.22,296.1L253.39,298.69L254.55,306.31L255.71,299.88L256.87,299.94L258.04,299.75L259.2,297.62L260.36,300.55L261.52,306.19L262.69,300.87L263.85,302.84L265.01,301.69L266.17,301.68L267.33,307.82L268.5,299.09L269.66,302.08L270.82,300.88L271.98,304.63L273.15,299.84L274.31,302.66L275.47,302.24L276.63,301.8L277.8,303.36L278.96,302.59L280.12,302.77L281.28,304.66L282.44,304.96L284.77,303.06L285.93,305.22L288.26,304.25L289.42,305.5L291.74,306.76L292.91,304.32L294.07,307.5L295.23,307.07L297.56,305.47L298.72,306.77L299.88,308.4L301.04,306.48L303.37,304.59L304.53,308.84L306.85,306.62L308.02,309.15L309.18,308.18L310.34,304.79L311.5,307.25L312.67,306.75L313.83,309.8L314.99,308.16L316.15,307.27L317.31,307.33L318.48,306.79L319.64,309.32L320.8,308.01L321.96,310.18L323.13,310.44L324.29,308.58L326.61,308.12L327.78,309.96L328.94,310.6L330.1,309.16L331.26,310.94L332.42,310.25L333.59,308.79L334.75,308.66L337.07,310.51L338.24,310.63L339.4,309.04L340.56,309.9L341.72,310.87L342.89,309.4L344.05,309.58L345.21,310.72L346.37,310.7L347.54,312.07L348.7,310.13L349.86,310.68L352.18,311.29L353.35,310.39L356.83,312.28L358,310.91L361.48,312.15L362.65,310.72L364.97,311.68L366.13,311.77L367.29,311.15L368.46,312.09L370.78,312.17L371.94,311.15L375.43,312.34L376.59,311.76L380.08,312.93L381.24,311.34L387.05,312.81L388.22,312.6L389.38,312.78L390.54,312.11L392.87,312.93L394.03,313.01L396.35,312.92L397.52,313L406.81,313L407.98,313.11L410.3,312.95L411.46,313.06L431.22,313.23L432.38,313.02L445.17,313.31L446.33,313.16L456.79,313.32L457.96,313.38L476.55,313.34L477.72,313.36L503.29,313.42L504.45,313.45L580,313.41"/><g class="points"/></g><g class="trace scatter tracef5b543" style="stroke-miterlimit: 2; opacity: 1;"><path class="js-line" style="vector-effect: non-scaling-stroke; fill: none; stroke: rgb(255, 127, 14); stroke-opacity: 1; stroke-width: 2px; opacity: 1;" d="M0,16.5L2.32,59.06L3.49,286.36L4.65,75.52L5.81,72.61L6.97,57.28L8.14,76.39L9.3,116.83L10.46,105.72L11.62,214.46L12.79,228.46L13.95,153.29L15.11,247.07L16.27,165.43L17.43,247.51L18.6,193.11L19.76,218L20.92,262.5L22.08,269.49L23.25,228.06L24.41,231.69L25.57,64.18L26.73,182.5L29.06,223.37L30.22,143.44L31.38,275.84L32.55,223.28L33.71,254.95L34.87,171.2L36.03,242.09L37.19,166.49L38.36,137.14L39.52,299.2L40.68,299.2L41.84,300.1L43.01,299.73L44.17,128.03L45.33,133.06L46.49,155.67L47.66,152.56L48.82,203.41L49.98,290.92L51.14,292.42L53.47,292.74L54.63,116.99L55.79,289.95L56.95,292.96L59.28,293.12L60.44,168.48L61.6,175.83L62.77,170.04L63.93,171.26L65.09,188.21L67.41,164.74L68.58,179.85L69.74,182.33L70.9,179.72L72.06,168.46L73.23,186.46L74.39,194.96L75.55,190.38L76.71,186.76L77.88,188.89L80.2,203.14L81.36,195.12L82.53,203.72L83.69,200.58L84.85,238.37L86.01,198.46L87.17,264.24L88.34,210.72L89.5,211.31L90.66,203L94.15,220.45L95.31,213.51L96.47,209.8L97.64,225.45L99.96,218.69L101.12,223.46L102.28,233.54L103.45,220.81L104.61,221.06L105.77,273.94L106.93,230.3L108.1,227.63L109.26,263.24L110.42,226.3L111.58,240.8L112.75,239.99L113.91,233.2L115.07,231.83L116.23,241.75L117.39,235.79L118.56,229.95L119.72,241.93L120.88,244.4L122.04,234.99L124.37,254.65L125.53,248.88L126.69,245.6L127.86,257.29L129.02,252.45L130.18,252.91L131.34,273.11L132.51,238.88L134.83,256.54L135.99,252.18L137.15,253.73L138.32,260.95L141.8,249.11L142.97,256.42L144.13,259.43L145.29,265.34L146.45,254.19L147.62,266.08L149.94,260.08L151.1,261.94L152.26,266.36L153.43,265.49L154.59,273.43L155.75,266.58L156.91,265.34L158.08,270.58L159.24,264.48L160.4,280.75L161.56,278.55L162.73,269.46L163.89,267.08L165.05,271.02L166.21,282.95L167.37,277.71L169.7,267.58L170.86,268.47L173.19,282.98L174.35,304.34L175.51,297.1L176.67,275.96L177.84,273.4L179,275.41L180.16,296.26L181.32,281.8L182.48,279.7L183.65,292.4L184.81,291.19L185.97,280.82L187.13,296.62L188.3,296.35L190.62,281.85L191.78,289.47L192.95,283.27L194.11,287.42L196.43,282.32L197.6,283.16L198.76,282.29L199.92,288.31L201.08,289.28L202.24,301.96L203.41,282.36L204.57,290.32L205.73,292.97L206.89,287.59L208.06,287.95L209.22,289.64L210.38,292.81L211.54,299.1L212.71,287.98L213.87,291.27L215.03,289.6L216.19,289.33L217.35,293.18L218.52,290.85L219.68,302.79L220.84,302L222,287.92L223.17,291.28L224.33,302L225.49,295.54L226.65,303.26L227.82,290.51L228.98,297.15L230.14,296L231.3,292.95L232.46,298.19L233.63,290.87L234.79,293.67L235.95,302.83L237.11,294.59L238.28,301.97L239.44,294.46L240.6,299.18L241.76,296.01L242.93,295.4L244.09,297.47L245.25,295.25L246.41,299.47L247.58,303.43L248.74,299.05L249.9,301.66L251.06,296.52L252.22,297.58L253.39,302.35L254.55,305.1L255.71,295.92L258.04,303.61L259.2,300.63L260.36,299.45L261.52,308.65L262.69,301.49L263.85,308.66L265.01,302.44L266.17,302.25L267.33,308.93L268.5,299.69L269.66,300.11L270.82,302.56L271.98,304.18L273.15,301.56L275.47,303.28L276.63,304.82L277.8,307.05L278.96,303.02L281.28,306.32L282.44,306.88L284.77,303.33L285.93,307.55L287.09,306.48L288.26,303.1L289.42,304.22L290.58,308.86L291.74,309.21L292.91,303.71L294.07,308.38L295.23,306.28L296.39,308.21L297.56,305.66L299.88,310.03L301.04,306.53L303.37,304.76L304.53,310.18L305.69,310.2L306.85,307.51L308.02,305.18L309.18,305.21L310.34,307.26L311.5,307.27L312.67,307.54L313.83,310.19L316.15,307.29L317.31,309.18L319.64,309.96L320.8,309.42L321.96,311.98L323.13,308.72L324.29,310.01L325.45,309.17L328.94,310.8L330.1,309.96L331.26,312.33L332.42,309.65L333.59,307.45L334.75,308.2L335.91,311.44L337.07,311.7L338.24,311.46L339.4,310.17L341.72,311.33L342.89,311.18L344.05,310.31L345.21,311.9L346.37,310.72L347.54,311.83L348.7,311.24L349.86,311.92L351.02,310.61L352.18,312.14L354.51,311.42L355.67,312.4L360.32,312.06L361.48,310.6L364.97,312.57L366.13,311.47L367.29,312.2L368.46,311.79L369.62,312.21L370.78,311.24L371.94,311.33L373.11,312.27L380.08,313.04L381.24,310.81L384.73,312.65L385.89,312.73L390.54,312.6L391.7,313.03L426.57,313.25L427.74,313.1L439.36,313.27L440.52,313.35L445.17,313.22L446.33,313.29L470.74,313.4L471.9,313.41L495.15,313.46L496.31,313.47L543.97,313.37L545.13,313.4L580,313.4"/><g class="points"/></g></g></g><g class="overplot"/><path class="xlines-above crisp" style="fill: none;"/><path class="ylines-above crisp" style="fill: none;"/><g class="overlines-above"/><g class="xaxislayer-above"><g class="xtick"><text text-anchor="middle" x="0" y="403" style="font-family: TOBESTRIPPEDOpen SansTOBESTRIPPED, verdana, arial, sans-serif; font-size: 12px; fill: rgb(68, 68, 68); fill-opacity: 1; white-space: pre;" transform="translate(175.07,0)">100</text></g><g class="xtick"><text text-anchor="middle" x="0" y="403" style="font-family: TOBESTRIPPEDOpen SansTOBESTRIPPED, verdana, arial, sans-serif; font-size: 12px; fill: rgb(68, 68, 68); fill-opacity: 1; white-space: pre;" transform="translate(291.3,0)">200</text></g><g class="xtick"><text text-anchor="middle" x="0" y="403" style="font-family: TOBESTRIPPEDOpen SansTOBESTRIPPED, verdana, arial, sans-serif; font-size: 12px; fill: rgb(68, 68, 68); fill-opacity: 1; white-space: pre;" transform="translate(407.54,0)">300</text></g><g class="xtick"><text text-anchor="middle" x="0" y="403" style="font-family: TOBESTRIPPEDOpen SansTOBESTRIPPED, verdana, arial, sans-serif; font-size: 12px; fill: rgb(68, 68, 68); fill-opacity: 1; white-space: pre;" transform="translate(523.77,0)">400</text></g><g class="xtick"><text text-anchor="middle" x="0" y="403" style="font-family: TOBESTRIPPEDOpen SansTOBESTRIPPED, verdana, arial, sans-serif; font-size: 12px; fill: rgb(68, 68, 68); fill-opacity: 1; white-space: pre;" transform="translate(640,0)">500</text></g></g><g class="yaxislayer-above"><g class="ytick"><text text-anchor="end" x="59" y="4.199999999999999" style="font-family: TOBESTRIPPEDOpen SansTOBESTRIPPED, verdana, arial, sans-serif; font-size: 12px; fill: rgb(68, 68, 68); fill-opacity: 1; white-space: pre;" transform="translate(0,377.45)">0</text></g><g class="ytick"><text text-anchor="end" x="59" y="4.199999999999999" style="font-family: TOBESTRIPPEDOpen SansTOBESTRIPPED, verdana, arial, sans-serif; font-size: 12px; fill: rgb(68, 68, 68); fill-opacity: 1; white-space: pre;" transform="translate(0,292.84000000000003)">50k</text></g><g class="ytick"><text text-anchor="end" x="59" y="4.199999999999999" style="font-family: TOBESTRIPPEDOpen SansTOBESTRIPPED, verdana, arial, sans-serif; font-size: 12px; fill: rgb(68, 68, 68); fill-opacity: 1; white-space: pre;" transform="translate(0,208.22)">100k</text></g><g class="ytick"><text text-anchor="end" x="59" y="4.199999999999999" style="font-family: TOBESTRIPPEDOpen SansTOBESTRIPPED, verdana, arial, sans-serif; font-size: 12px; fill: rgb(68, 68, 68); fill-opacity: 1; white-space: pre;" transform="translate(0,123.6)">150k</text></g></g><g class="overaxes-above"/></g></g><g class="polarlayer"/><g class="ternarylayer"/><g class="geolayer"/><g class="pielayer"/><g class="glimages"/><defs id="topdefs-29fc36"><g class="clips"/></defs><g class="layer-above"><g class="imagelayer"/><g class="shapelayer"/></g><g class="infolayer"><g class="g-gtitle"><text class="gtitle" style="font-family: TOBESTRIPPEDOpen SansTOBESTRIPPED, verdana, arial, sans-serif; font-size: 17px; fill: rgb(68, 68, 68); opacity: 1; font-weight: normal; white-space: pre;" x="350" y="30" text-anchor="middle">Train and Eval Loss</text></g><g class="g-xtitle"><text class="xtitle" style="font-family: TOBESTRIPPEDOpen SansTOBESTRIPPED, verdana, arial, sans-serif; font-size: 14px; fill: rgb(68, 68, 68); opacity: 1; font-weight: normal; white-space: pre;" x="350" y="442" text-anchor="middle">Epoch</text></g><g class="g-ytitle"><text class="ytitle" transform="rotate(-90,22,225)" style="font-family: TOBESTRIPPEDOpen SansTOBESTRIPPED, verdana, arial, sans-serif; font-size: 14px; fill: rgb(68, 68, 68); opacity: 1; font-weight: normal; white-space: pre;" x="22" y="225" text-anchor="middle">Loss</text></g></g></svg>